<svg xmlns="http://www.w3.org/2000/svg" viewBox="0 0 413.46 305.8"><defs><style>.cls-1{fill:#de2826;}.cls-2{fill:#fff;}</style></defs><title>alv</title><g id="Calque_2" data-name="Calque 2"><g id="Calque_1-2" data-name="Calque 1"><path class="cls-1" d="M100.27,64.71a5.36,5.36,0,0,0,.92-3.59V49.53a3.79,3.79,0,0,0-1-3.08A5.06,5.06,0,0,0,97,45.63H90.93V65.74H97A4.27,4.27,0,0,0,100.27,64.71Z"/><polygon class="cls-1" points="47.63 46.66 42.91 74.16 52.56 74.16 47.63 46.66"/><path class="cls-1" d="M272.19,90.57q6.1,0,6.11-5.13V50.66q0-5.13-6.11-5.13t-6.1,5.13V85.44Q266.09,90.57,272.19,90.57Z"/><path class="cls-1" d="M147.68,64.71a5.42,5.42,0,0,0,.92-3.59V49.53a3.76,3.76,0,0,0-1-3.08,5,5,0,0,0-3.18-.82h-6V65.74h6A4.28,4.28,0,0,0,147.68,64.71Z"/><path class="cls-1" d="M0,0,0,305.8H413.46V0ZM347.77,49.12q0-8.2,5.54-12.67T369.26,32q10.41,0,15.55,2.16V48.91a36.08,36.08,0,0,0-14.26-2.67q-4.11,0-5.55,1.29a4.61,4.61,0,0,0-1.43,3.64v1.54a7.49,7.49,0,0,0,1,4.26,12.75,12.75,0,0,0,4.26,3.13l11.7,6.56q8.42,4.62,8.41,13.86v6.36q0,8.31-6.15,12.77t-17.29,4.47q-11.14,0-16.78-2.36V86.88a40,40,0,0,0,15.8,3q8.82,0,8.83-5V83.29a5.46,5.46,0,0,0-1-3.54,12.57,12.57,0,0,0-3.64-2.62l-11-5.95q-10-5.54-10-15.6Zm-50-16.63H313l9.34,23.81a232,232,0,0,1,8,23.19Q328,69.55,328,50.35V32.49h15.19V103.6H328.37q-15.18-38.77-17.54-46.79Q313,64.93,313,84.72V103.6H297.79ZM250.7,49.84q0-8.42,5.43-13.39t16-5q10.58,0,16.06,5t5.49,13.39V86.26q0,8.42-5.49,13.39t-16.06,5q-10.56,0-16-5T250.7,86.26ZM207.4,32.49h41.25V45.83H235.82V103.6h-15.6V45.83H207.4Zm-27.3-15.8h11l6.16,11.8h-7.49L185.64,23l-4.2,5.54H174Zm-11.8,15.8h36V45.83H183.69V60.92h17.86V74.26H183.69v16h20.63V103.6h-36Zm-45.35,0h23.19q8.42,0,13.13,4T164,48.19V61.33q0,12.32-8.41,15.39l11.18,26.88H149.83L140.29,78h-1.95V103.6H123Zm-47.41,0H98.73q8.42,0,13.14,4t4.72,11.69V61.33q0,12.32-8.42,15.39l11.19,26.88H102.43L92.88,78H90.93V103.6H75.54Zm-38.27,0H58.71L72.46,103.6H57.79l-3-16.41H40.76L38,103.6H23.31ZM402.43,295H11V125.94H402.43Z"/><path class="cls-2" d="M51.14,270.9q-1.11-9.51-2-16.5t-6.78-40.48H26.85l13.56,70.14H61.56l13.36-70.14H59.14l-4.66,29.86Q53.06,252.78,51.14,270.9Z"/><path d="M51.14,270.9q-1.11-9.51-2-16.5t-6.78-40.48H26.85l13.56,70.14H61.56l13.36-70.14H59.14l-4.66,29.86Q53.06,252.78,51.14,270.9Z"/><rect class="cls-2" x="77.96" y="213.92" width="15.38" height="70.14"/><rect x="77.96" y="213.92" width="15.38" height="70.14"/><path class="cls-2" d="M118.54,212.91q-10.42,0-15.78,4.9T97.39,231V267q0,8.3,5.37,13.21t15.78,4.91q10.42,0,15.84-4.91T139.8,267V231q0-8.29-5.42-13.21T118.54,212.91Zm6.08,53.23c0,3.38-2,5.06-6,5.06s-6-1.68-6-5.06V231.83q0-5.06,6-5.06t6,5.06Z"/><path d="M118.54,212.91q-10.42,0-15.78,4.9T97.39,231V267q0,8.3,5.37,13.21t15.78,4.91q10.42,0,15.84-4.91T139.8,267V231q0-8.29-5.42-13.21T118.54,212.91Zm6.08,53.23c0,3.38-2,5.06-6,5.06s-6-1.68-6-5.06V231.83q0-5.06,6-5.06t6,5.06Z"/><polygon class="cls-2" points="177.95 271.3 159.23 271.3 159.23 213.92 143.84 213.92 143.84 284.06 177.95 284.06 177.95 271.3"/><polygon points="177.95 271.3 159.23 271.3 159.23 213.92 143.84 213.92 143.84 284.06 177.95 284.06 177.95 271.3"/><polygon class="cls-2" points="216.51 270.9 196.17 270.9 196.17 255.11 213.78 255.11 213.78 241.95 196.17 241.95 196.17 227.08 216.51 227.08 216.51 213.92 180.99 213.92 180.99 284.06 216.51 284.06 216.51 270.9"/><polygon points="216.51 270.9 196.17 270.9 196.17 255.11 213.78 255.11 213.78 241.95 196.17 241.95 196.17 227.08 216.51 227.08 216.51 213.92 180.99 213.92 180.99 284.06 216.51 284.06 216.51 270.9"/><path class="cls-2" d="M234.53,265.43q0-19.53-2.13-27.53,2.32,7.9,17.31,46.16h14.57V213.92h-15v17.61q0,18.93,2.33,28.74a227.19,227.19,0,0,0-7.89-22.87l-9.21-23.48h-15v70.14h15Z"/><path d="M234.53,265.43q0-19.53-2.13-27.53,2.32,7.9,17.31,46.16h14.57V213.92h-15v17.61q0,18.93,2.33,28.74a227.19,227.19,0,0,0-7.89-22.87l-9.21-23.48h-15v70.14h15Z"/><path class="cls-2" d="M273.85,280.11q5.5,4.45,16.85,4.45A49.73,49.73,0,0,0,304,283V269.38a43.88,43.88,0,0,1-12.6,1.52q-7.64,0-7.64-4.86V232a4.4,4.4,0,0,1,1.62-3.69q1.62-1.26,7.14-1.26a38.23,38.23,0,0,1,11.18,1.72v-14a49.41,49.41,0,0,0-12.75-1.42q-11.34,0-16.95,4.51t-5.62,12.6v37Q268.33,275.66,273.85,280.11Z"/><path d="M273.85,280.11q5.5,4.45,16.85,4.45A49.73,49.73,0,0,0,304,283V269.38a43.88,43.88,0,0,1-12.6,1.52q-7.64,0-7.64-4.86V232a4.4,4.4,0,0,1,1.62-3.69q1.62-1.26,7.14-1.26a38.23,38.23,0,0,1,11.18,1.72v-14a49.41,49.41,0,0,0-12.75-1.42q-11.34,0-16.95,4.51t-5.62,12.6v37Q268.33,275.66,273.85,280.11Z"/><polygon class="cls-2" points="344.54 270.9 324.2 270.9 324.2 255.11 341.81 255.11 341.81 241.95 324.2 241.95 324.2 227.08 344.54 227.08 344.54 213.92 309.01 213.92 309.01 284.06 344.54 284.06 344.54 270.9"/><polygon points="344.54 270.9 324.2 270.9 324.2 255.11 341.81 255.11 341.81 241.95 324.2 241.95 324.2 227.08 344.54 227.08 344.54 213.92 309.01 213.92 309.01 284.06 344.54 284.06 344.54 270.9"/><path class="cls-2" d="M356.89,252.07l10.82,5.87a12.64,12.64,0,0,1,3.6,2.58,5.41,5.41,0,0,1,1,3.5v1.52q0,4.95-8.71,4.95A39.31,39.31,0,0,1,348,267.56v14.67q5.56,2.34,16.55,2.33t17.05-4.4q6.07-4.41,6.07-12.6v-6.28q0-9.1-8.3-13.66l-11.53-6.48a12.33,12.33,0,0,1-4.2-3.08,7.28,7.28,0,0,1-1-4.2v-1.52a4.54,4.54,0,0,1,1.42-3.59c.94-.85,2.77-1.27,5.47-1.27a35.61,35.61,0,0,1,14.06,2.63V215.54q-5.06-2.13-15.33-2.13t-15.74,4.4q-5.46,4.41-5.46,12.5v6.38Q347.07,246.61,356.89,252.07Z"/><path d="M356.89,252.07l10.82,5.87a12.64,12.64,0,0,1,3.6,2.58,5.41,5.41,0,0,1,1,3.5v1.52q0,4.95-8.71,4.95A39.31,39.31,0,0,1,348,267.56v14.67q5.56,2.34,16.55,2.33t17.05-4.4q6.07-4.41,6.07-12.6v-6.28q0-9.1-8.3-13.66l-11.53-6.48a12.33,12.33,0,0,1-4.2-3.08,7.28,7.28,0,0,1-1-4.2v-1.52a4.54,4.54,0,0,1,1.42-3.59c.94-.85,2.77-1.27,5.47-1.27a35.61,35.61,0,0,1,14.06,2.63V215.54q-5.06-2.13-15.33-2.13t-15.74,4.4q-5.46,4.41-5.46,12.5v6.38Q347.07,246.61,356.89,252.07Z"/><polygon class="cls-1" points="58.87 192.61 40.97 192.61 40.97 137.74 26.26 137.74 26.26 204.8 58.87 204.8 58.87 192.61"/><polygon class="cls-1" points="97.68 192.22 78.23 192.22 78.23 177.13 95.06 177.13 95.06 164.54 78.23 164.54 78.23 150.32 97.68 150.32 97.68 137.74 63.71 137.74 63.71 204.8 97.68 204.8 97.68 192.22"/><path class="cls-1" d="M111.42,174.22l10.35,5.62a11.86,11.86,0,0,1,3.44,2.46,5.18,5.18,0,0,1,.92,3.34v1.45c0,3.17-2.78,4.74-8.32,4.74A37.71,37.71,0,0,1,102.9,189v14q5.32,2.24,15.83,2.23t16.3-4.21q5.81-4.22,5.81-12.05v-6q0-8.72-7.94-13.07l-11-6.19a11.92,11.92,0,0,1-4-3,7,7,0,0,1-.92-4v-1.45a4.36,4.36,0,0,1,1.35-3.43c.9-.81,2.65-1.21,5.23-1.21A34.17,34.17,0,0,1,137,153.22V139.29q-4.84-2-14.66-2t-15,4.2q-5.24,4.22-5.23,12v6.09Q102,169,111.42,174.22Z"/></g></g></svg>